<svg width="11" height="11" viewBox="0 0 11 11" fill="none" xmlns="http://www.w3.org/2000/svg">
<path d="M7.04468 2.81883L3.77695 1.19383L1.08924 2.33946V9.19046L3.84775 8.01504L7.11548 9.64004L9.80319 8.49333V1.64287L7.04468 2.81829V2.81883ZM1.07808e-07 1.625L3.81235 0L7.08008 1.625L10.5128 0.161958C10.5543 0.144291 10.5995 0.137133 10.6444 0.141127C10.6893 0.145121 10.7325 0.160142 10.7701 0.184841C10.8077 0.20954 10.8386 0.243146 10.86 0.282641C10.8813 0.322135 10.8925 0.366284 10.8924 0.411125V9.20833L7.08008 10.8333L3.81235 9.20833L0.379601 10.6714C0.338163 10.689 0.292963 10.6962 0.248056 10.6922C0.20315 10.6882 0.159944 10.6732 0.122315 10.6485C0.084686 10.6238 0.0538118 10.5902 0.0324633 10.5507C0.0111147 10.5112 -4.00059e-05 10.467 1.07808e-07 10.4222V1.625ZM2.17849 4.875H3.26773V5.95833H2.17849V4.875ZM4.35697 4.875H5.44622V5.95833H4.35697V4.875ZM7.62361 4.84087L8.29785 4.17083L8.87515 4.745L8.20146 5.41558L8.87515 6.08617L8.29785 6.66033L7.62361 5.99029L6.94992 6.66033L6.37207 6.08617L7.04577 5.41558L6.37207 4.74554L6.94937 4.17083L7.62361 4.84087V4.84087Z" fill="#D27C4A"/>
</svg>
